<svg width="172" height="58" viewBox="0 0 172 58" fill="none" xmlns="http://www.w3.org/2000/svg">
<rect width="172" height="58" fill="#BCBCBC"/>
<path d="M38.305 23.875V20.859H44.337V42H41.002V23.875H38.305ZM62.2767 23.411L54.2147 42H50.8797L59.0287 23.759H48.2987V20.946H62.2767V23.411ZM66.9332 37.505C68.7892 35.9003 70.2489 34.5857 71.3122 33.561C72.3949 32.517 73.2939 31.4343 74.0092 30.313C74.7245 29.1917 75.0822 28.0703 75.0822 26.949C75.0822 25.789 74.8019 24.8803 74.2412 24.223C73.6999 23.5657 72.8395 23.237 71.6602 23.237C70.5195 23.237 69.6302 23.6043 68.9922 24.339C68.3735 25.0543 68.0449 26.021 68.0062 27.239H64.8162C64.8742 25.035 65.5315 23.353 66.7882 22.193C68.0642 21.0137 69.6785 20.424 71.6312 20.424C73.7385 20.424 75.3819 21.004 76.5612 22.164C77.7599 23.324 78.3592 24.8707 78.3592 26.804C78.3592 28.196 78.0015 29.5397 77.2862 30.835C76.5902 32.111 75.7492 33.2613 74.7632 34.286C73.7965 35.2913 72.5592 36.461 71.0512 37.795L69.7462 38.955H78.9392V41.71H64.8452V39.303L66.9332 37.505ZM93.5345 42L88.7245 34.452L84.0995 42H80.5845L87.1335 31.936L80.5845 21.724H84.3955L89.2055 29.235L93.7935 21.724H97.3085L90.7965 31.751L97.3455 42H93.5345ZM113.179 23.701H103.464V29.472C103.87 28.9307 104.469 28.4763 105.262 28.109C106.074 27.7417 106.934 27.558 107.843 27.558C109.467 27.558 110.781 27.906 111.787 28.602C112.811 29.298 113.536 30.1777 113.962 31.241C114.406 32.3043 114.629 33.4257 114.629 34.605C114.629 36.0357 114.348 37.3117 113.788 38.433C113.246 39.535 112.425 40.405 111.323 41.043C110.24 41.681 108.906 42 107.321 42C105.213 42 103.522 41.478 102.246 40.434C100.97 39.39 100.206 38.0077 99.9546 36.287H103.174C103.386 37.1957 103.86 37.9207 104.595 38.462C105.329 38.984 106.248 39.245 107.35 39.245C108.722 39.245 109.747 38.8293 110.424 37.998C111.12 37.1667 111.468 36.0647 111.468 34.692C111.468 33.3 111.12 32.2367 110.424 31.502C109.728 30.748 108.703 30.371 107.35 30.371C106.402 30.371 105.6 30.6127 104.943 31.096C104.305 31.56 103.841 32.198 103.551 33.01H100.419V20.801H113.179V23.701ZM121.637 30.951C119.626 29.9457 118.621 28.3603 118.621 26.195C118.621 25.151 118.882 24.194 119.404 23.324C119.926 22.454 120.709 21.7677 121.753 21.265C122.797 20.743 124.073 20.482 125.581 20.482C127.07 20.482 128.336 20.743 129.38 21.265C130.443 21.7677 131.236 22.454 131.758 23.324C132.28 24.194 132.541 25.151 132.541 26.195C132.541 27.2777 132.261 28.2347 131.7 29.066C131.159 29.878 130.434 30.5063 129.525 30.951C130.627 31.357 131.497 32.024 132.135 32.952C132.773 33.8607 133.092 34.9337 133.092 36.171C133.092 37.4277 132.773 38.5393 132.135 39.506C131.497 40.4727 130.608 41.217 129.467 41.739C128.326 42.261 127.031 42.522 125.581 42.522C124.131 42.522 122.836 42.261 121.695 41.739C120.574 41.217 119.694 40.4727 119.056 39.506C118.418 38.5393 118.099 37.4277 118.099 36.171C118.099 34.9143 118.418 33.8317 119.056 32.923C119.694 32.0143 120.554 31.357 121.637 30.951ZM129.38 26.601C129.38 25.5183 129.042 24.687 128.365 24.107C127.688 23.527 126.76 23.237 125.581 23.237C124.421 23.237 123.503 23.527 122.826 24.107C122.149 24.687 121.811 25.528 121.811 26.63C121.811 27.5967 122.159 28.3893 122.855 29.008C123.57 29.6073 124.479 29.907 125.581 29.907C126.683 29.907 127.592 29.5977 128.307 28.979C129.022 28.3603 129.38 27.5677 129.38 26.601ZM125.581 32.401C124.305 32.401 123.261 32.72 122.449 33.358C121.656 33.9767 121.26 34.8757 121.26 36.055C121.26 37.157 121.647 38.056 122.42 38.752C123.193 39.4287 124.247 39.767 125.581 39.767C126.896 39.767 127.93 39.419 128.684 38.723C129.457 38.027 129.844 37.1377 129.844 36.055C129.844 34.895 129.448 33.996 128.655 33.358C127.882 32.72 126.857 32.401 125.581 32.401Z" fill="black"/>
</svg>
