<?xml version="1.0" encoding="UTF-8"?>
<svg version="1.1" xmlns="http://www.w3.org/2000/svg" width="1024" height="1024">
<path d="M0 0 C337.92 0 675.84 0 1024 0 C1024 337.92 1024 675.84 1024 1024 C686.08 1024 348.16 1024 0 1024 C0 686.08 0 348.16 0 0 Z " fill="#FEFEFE" transform="translate(0,0)"/>
<path d="M0 0 C2.30599972 1.70511316 4.40329172 3.49729756 6.49609375 5.45703125 C7.13417969 6.04226562 7.77226563 6.6275 8.4296875 7.23046875 C17.35667615 16.33023782 19.61040986 28.67851203 19.70141602 40.97485352 C19.71131561 41.81006531 19.72121521 42.6452771 19.73141479 43.50579834 C19.76293145 46.2616497 19.78778679 49.01751741 19.8125 51.7734375 C19.83311586 53.70995988 19.85411338 55.64647823 19.87547302 57.58299255 C19.91938967 61.64897375 19.96029792 65.71496963 19.9987793 69.78100586 C20.0475251 74.93093904 20.10113449 80.08080497 20.15675449 85.23066807 C20.21029455 90.20324125 20.26156147 95.17583709 20.3125 100.1484375 C20.32205782 101.06887911 20.33161564 101.98932072 20.34146309 102.9376545 C20.47594927 116.11118591 20.518211 129.28283861 20.49609375 142.45703125 C21.21684082 142.54831299 21.93758789 142.63959473 22.68017578 142.73364258 C36.49736533 144.60967773 49.06322573 152.33934438 57.86181641 163.13232422 C70.82815226 180.6435613 75.0723433 200.36847297 72.17529297 221.83398438 C70.69805302 229.69584459 67.93149239 236.81729292 63.49609375 243.45703125 C63.0475 244.14925781 62.59890625 244.84148437 62.13671875 245.5546875 C60.99685185 247.24102 59.75513439 248.85770936 58.49609375 250.45703125 C57.83609375 250.45703125 57.17609375 250.45703125 56.49609375 250.45703125 C56.49609375 251.11703125 56.49609375 251.77703125 56.49609375 252.45703125 C45.89744998 261.74365722 35.25320287 265.28231376 21.49609375 268.45703125 C21.16609375 281.32703125 20.83609375 294.19703125 20.49609375 307.45703125 C26.10609375 307.45703125 31.71609375 307.45703125 37.49609375 307.45703125 C76.7511649 311.10866578 110.48205181 328.88165978 136.49609375 358.45703125 C160.55232457 387.6300678 171.49705131 425.25084231 168.0625 462.71484375 C163.90753448 499.96226879 145.88742812 534.90276095 116.49609375 558.45703125 C87.11738393 581.11881383 51.18426419 591.23522264 14.22265625 587.95703125 C-15.33136262 583.99171216 -41.54608955 572.42823379 -63.97973633 552.77490234 C-65.53003211 551.43444157 -67.10684846 550.13171646 -68.69140625 548.83203125 C-92.84077595 528.43923017 -106.66392762 494.17887603 -110.50390625 463.45703125 C-111.91510134 433.13344223 -108.82392394 402.43705778 -91.50390625 376.45703125 C-91.61166193 373.48776365 -92.38780526 372.56651051 -94.55859375 370.51953125 C-112.53870422 357.3706416 -131.78297437 346.72095793 -151.50390625 336.45703125 C-152.9724707 335.68480225 -152.9724707 335.68480225 -154.47070312 334.89697266 C-184.05658432 319.37847852 -212.79701651 307.39830114 -246.50390625 307.45703125 C-246.31852295 308.47756592 -246.13313965 309.49810059 -245.94213867 310.54956055 C-244.18685511 320.29970488 -242.61180063 330.06406782 -241.17086792 339.86523438 C-240.80250351 342.36383286 -240.42935635 344.86167776 -240.05493164 347.359375 C-238.86812001 355.27880119 -237.68631272 363.19885923 -236.52832031 371.12255859 C-235.68016983 376.92517881 -234.81918834 382.72578842 -233.95126343 388.52548218 C-233.6154145 390.78588396 -233.28410224 393.04696516 -232.95767212 395.30874634 C-230.00167003 419.12172867 -230.00167003 419.12172867 -219.50390625 440.26953125 C-218.62313704 441.50371562 -217.74812549 442.74202909 -216.87890625 443.984375 C-216.46769531 444.5707373 -216.05648437 445.15709961 -215.6328125 445.76123047 C-209.65121536 454.74656216 -206.57982341 464.8325277 -207.9140625 475.56640625 C-210.19104968 486.72515137 -215.82497374 495.56672927 -225.02734375 502.3046875 C-234.98547184 508.54000771 -244.41303262 510.61010891 -256.0390625 510.625 C-256.95417099 510.6283284 -257.86927948 510.6316568 -258.81211853 510.63508606 C-260.74607849 510.64013546 -262.68004712 510.642495 -264.61401367 510.64233398 C-267.53254092 510.64450605 -270.45068086 510.66264313 -273.36914062 510.68164062 C-294.73160379 510.74854496 -310.62158985 507.9940799 -326.50390625 492.45703125 C-337.56013529 479.59859638 -340.55277634 464.44160957 -343.19140625 448.22265625 C-344.88442457 437.9478506 -346.69969872 427.69816206 -348.5625 417.453125 C-348.76644221 416.33039908 -348.76644221 416.33039908 -348.97450447 415.18499184 C-350.2432445 408.20229875 -351.51619743 401.22037646 -352.79223633 394.23901367 C-366.50390625 319.18579405 -366.50390625 319.18579405 -366.50390625 306.45703125 C-367.72078125 306.39515625 -368.93765625 306.33328125 -370.19140625 306.26953125 C-388.0314275 304.22507042 -403.65277821 292.06844106 -414.8515625 278.65625 C-426.17241768 263.58853968 -429.29487083 248.23230312 -429.1328125 229.921875 C-429.13364443 228.18705598 -429.13611596 226.45223708 -429.14012146 224.71742249 C-429.14295485 221.10946478 -429.12852106 217.5021363 -429.10083008 213.89428711 C-429.06672574 209.31320965 -429.07279783 204.73325297 -429.09149265 200.15212154 C-429.10215457 196.57856711 -429.09304275 193.00526515 -429.07810783 189.43173409 C-429.0729944 187.74436764 -429.07332269 186.05697406 -429.07965279 184.36961174 C-429.11260111 170.31920995 -427.3751972 157.28861253 -420.44140625 144.76953125 C-419.86495361 143.71100952 -419.86495361 143.71100952 -419.27685547 142.63110352 C-409.00019143 124.54737728 -392.74215207 114.81246059 -373.5234375 108.25390625 C-365.4543095 106.12440805 -357.33302331 106.31713896 -349.0456543 106.33105469 C-347.69600872 106.32965741 -346.34636359 106.32775646 -344.99671936 106.32539368 C-342.10160152 106.32091732 -339.20649778 106.31904105 -336.31137657 106.31893158 C-331.71420649 106.31778273 -327.11711518 106.30488009 -322.51997375 106.28936768 C-321.74079155 106.28679482 -320.96160935 106.28422197 -320.15881556 106.28157115 C-318.56586386 106.27630487 -316.97291223 106.27101938 -315.37996066 106.26571512 C-304.6907134 106.23076658 -294.00156516 106.20404232 -283.31225586 106.20654297 C-276.08499753 106.20814273 -268.85801035 106.19183693 -261.63083869 106.15583634 C-257.8189813 106.1375558 -254.00757548 106.12787352 -250.19568443 106.14031219 C-229.79750628 106.20034425 -211.79087059 104.82674723 -193.00390625 96.20703125 C-191.70573975 95.62961182 -191.70573975 95.62961182 -190.38134766 95.04052734 C-187.74809309 93.86172287 -185.12577 92.66091779 -182.50390625 91.45703125 C-181.68889648 91.09061523 -180.87388672 90.72419922 -180.03417969 90.34667969 C-167.71418051 84.8074166 -156.07091034 78.4195169 -144.50390625 71.45703125 C-143.44461914 70.82200684 -142.38533203 70.18698242 -141.29394531 69.53271484 C-126.29694245 60.53634579 -111.40959849 51.37798344 -96.71875 41.88769531 C-95.35864126 41.00914183 -93.99700433 40.13294208 -92.6328125 39.26074219 C-82.72654903 32.92656078 -73.62474693 25.67004233 -64.55078125 18.21484375 C-24.21541521 -14.92213573 -24.21541521 -14.92213573 0 0 Z " fill="#1C1C1C" transform="translate(611.50390625,204.54296875)"/>
<path d="M0 0 C18.6945389 15.5877719 31.80458403 36.83636292 37.69238281 60.41113281 C38.01078125 61.64863281 38.32917969 62.88613281 38.65722656 64.16113281 C42.68692033 82.28546976 41.614577 100.60077621 36.69238281 118.41113281 C36.51578125 119.0754834 36.33917969 119.73983398 36.15722656 120.42431641 C28.66188069 147.94195196 9.25073976 170.32332166 -15.0859375 184.44287109 C-39.87165425 198.37521498 -70.56105219 202.29005012 -98.02319336 194.73681641 C-115.15930525 189.67250929 -129.59468624 181.94701085 -143.30761719 170.41113281 C-144.15066406 169.75177734 -144.15066406 169.75177734 -145.01074219 169.07910156 C-163.77101882 154.317726 -175.41345243 129.49596561 -179.30761719 106.41113281 C-179.5821875 104.88746094 -179.5821875 104.88746094 -179.86230469 103.33300781 C-183.46130303 71.63656629 -176.99967866 42.67566034 -157.55761719 17.28613281 C-117.93018191 -29.76656155 -48.95147887 -38.99716312 0 0 Z " fill="#FDFDFD" transform="translate(710.3076171875,565.5888671875)"/>
<path d="M0 0 C0.16018321 36.58729497 0.28354777 73.17452851 0.35745731 109.76210187 C0.36621237 114.08049687 0.37527261 118.39889118 0.38452148 122.71728516 C0.38635766 123.57700835 0.38819383 124.43673154 0.39008565 125.32250695 C0.42055415 139.24745887 0.47575118 153.17220872 0.54006957 167.09704073 C0.60550472 181.38267386 0.64440603 195.66820109 0.65861946 209.95397794 C0.66822976 218.77089697 0.69859388 227.58724491 0.75541527 236.40398817 C0.79238574 242.44801959 0.80360794 248.4917553 0.79450964 254.53589161 C0.79002087 258.0245358 0.79695321 261.5121814 0.83443832 265.0006485 C0.86916226 268.78286132 0.86093319 272.56261182 0.84178162 276.34487915 C0.86217151 277.44799521 0.8825614 278.55111127 0.90356916 279.68765509 C0.80344895 286.98018421 0.80344895 286.98018421 -1.61467731 290.04950595 C-3.34343163 291.54722113 -5.04196671 292.82289036 -7 294 C-7.66902344 293.48953125 -8.33804688 292.9790625 -9.02734375 292.453125 C-11.72241538 290.41282917 -14.42858541 288.38930105 -17.14453125 286.37695312 C-18.35556584 285.47823798 -19.56402902 284.57604441 -20.76953125 283.66992188 C-57.30950998 256.32464368 -101.18643339 234.42835168 -145 222 C-145.13208154 207.41088549 -145.26252582 192.82175706 -145.39115143 178.23261166 C-145.45094426 171.45479088 -145.51123057 164.67697523 -145.57275391 157.89916992 C-146.10239907 99.44994316 -146.10239907 99.44994316 -146 75 C-139.0625 72.875 -139.0625 72.875 -137.00024414 72.24951172 C-123.11221869 67.94877517 -109.90026024 62.87965904 -96.875 56.4375 C-96.16389069 56.08895966 -95.45278137 55.74041931 -94.72012329 55.38131714 C-68.26433597 42.40522372 -43.19491146 26.9545154 -18.25 11.3125 C-17.5187793 10.85609131 -16.78755859 10.39968262 -16.03417969 9.92944336 C-11.72541824 7.20436911 -7.65810192 4.28488628 -3.65527344 1.12573242 C-2 0 -2 0 0 0 Z " fill="#FEFEFE" transform="translate(545,263)"/>
<path d="M0 0 C1.22396484 0.0314209 2.44792969 0.0628418 3.70898438 0.09521484 C7.99355617 0.20678132 12.2780253 0.32226501 16.5625 0.4375 C43.70398766 1.14966731 70.85294081 1.54754901 98 2 C98 48.86 98 95.72 98 144 C78.096875 144.061875 58.19375 144.12375 37.6875 144.1875 C31.41838623 144.21481201 25.14927246 144.24212402 18.69018555 144.27026367 C10.99572754 144.28381348 10.99572754 144.28381348 7.38606262 144.28633118 C4.88152973 144.29091794 2.37700318 144.30142754 -0.12748718 144.31672668 C-3.93577467 144.33881406 -7.74365963 144.34171371 -11.55200195 144.34057617 C-12.65536298 144.3513705 -13.758724 144.36216482 -14.89552021 144.37328625 C-27.61430161 144.32272466 -39.53556889 140.85382265 -49 132 C-49 131.34 -49 130.68 -49 130 C-49.66 130 -50.32 130 -51 130 C-58.25624508 121.45016248 -61.09752043 111.29246751 -61.16113281 100.25708008 C-61.16609772 99.5994165 -61.17106262 98.94175293 -61.17617798 98.26416016 C-61.19072087 96.09927298 -61.19758955 93.93445915 -61.203125 91.76953125 C-61.20595238 91.02535131 -61.20877975 90.28117138 -61.21169281 89.51444054 C-61.2266562 85.57366967 -61.23590273 81.63293512 -61.24023438 77.69213867 C-61.24570461 73.64517804 -61.26970991 69.59855629 -61.29820633 65.55170155 C-61.31694299 62.41933765 -61.32204421 59.28705346 -61.32357025 56.15463829 C-61.32657416 54.66407106 -61.3345251 53.17350447 -61.34775543 51.68299294 C-61.46214254 37.80190111 -59.33532403 25.17147496 -49.73828125 14.48046875 C-44.37097085 9.3996396 -38.86982087 5.7117714 -32 3 C-31.22914063 2.68160156 -30.45828125 2.36320312 -29.6640625 2.03515625 C-20.13611519 -1.2259866 -9.9111984 -0.26461937 0 0 Z " fill="#FEFEFE" transform="translate(273,339)"/>
<path d="M0 0 C21.12 0 42.24 0 64 0 C67.3742705 19.12086617 67.3742705 19.12086617 68.28686523 25.78515625 C68.38816742 26.51801346 68.4894696 27.25087067 68.59384155 28.00593567 C68.80801262 29.55834717 69.02075432 31.11095651 69.23208427 32.66375732 C69.57061015 35.15077997 69.91329475 37.63720269 70.2568512 40.12353516 C70.98729989 45.41520294 71.7126512 50.70756271 72.4375 56 C76.14044088 83.25053029 76.14044088 83.25053029 80.17578125 110.453125 C80.32212509 111.41863281 80.46846893 112.38414062 80.61924744 113.37890625 C82.96615469 128.04374587 89.02134427 140.24669802 97.62109375 152.265625 C100.55423961 156.48669609 101.78777185 159.74234677 101.5 164.94921875 C100.67606599 168.32863559 98.6910101 169.94970659 96 172 C93.57099083 173.21450459 91.94946931 173.15943868 89.23413086 173.20874023 C88.2422728 173.22803085 87.25041473 173.24732147 86.22850037 173.26719666 C81.67035532 173.32501339 77.11236959 173.3742607 72.55395508 173.4050293 C70.15537073 173.42656523 67.75686402 173.46061498 65.35864258 173.50756836 C61.89368712 173.57478634 58.43036057 173.60207026 54.96484375 173.62109375 C53.90200668 173.64892441 52.83916962 173.67675507 51.74412537 173.70542908 C44.26501637 173.6849632 39.67131073 171.89960503 34 167 C28.38001129 160.85379512 26.81196268 153.27723224 25.41699219 145.29150391 C24.93583457 142.6473907 24.39676868 140.01837014 23.8515625 137.38671875 C23.42170457 135.29951426 22.99201836 133.2122744 22.5625 131.125 C22.36906006 130.18906006 22.17562012 129.25312012 21.97631836 128.28881836 C20.32443734 120.08071811 18.95913764 111.83398941 17.59837341 103.57347107 C15.89974951 93.30175699 14.05704018 83.05829169 12.19360352 72.81539917 C9.36834422 57.27359199 6.5646951 41.72784956 3.88299561 26.16055298 C3.63135324 24.69992442 3.37881706 23.23944952 3.12530518 21.77914429 C2.77854986 19.77904533 2.43605735 17.77820875 2.09375 15.77734375 C1.90490234 14.67640381 1.71605469 13.57546387 1.52148438 12.44116211 C0.89549206 8.31037483 0.46137744 4.15239699 0 0 Z " fill="#FEFEFE" transform="translate(273,512)"/>
<path d="M0 0 C3.03043577 2.51461691 4.7487758 5.24632739 6 9 C6.03954234 11.33299825 6.04401732 13.66708189 6 16 C6.53367187 16.14695312 7.06734375 16.29390625 7.6171875 16.4453125 C20.46433997 20.31279439 30.64778088 27.92148906 37.5625 39.5 C40.02423495 44.4028983 41.22769203 48.57063783 40 54 C38.19735922 57.74394623 36.63417235 59.55319676 33.25 61.9375 C29.19876517 63.26194216 25.99775043 63.37906895 22 62 C17.67784005 59.41027606 14.94124373 56.13424873 12.4375 51.8125 C9.89355742 47.42754635 6.98792877 45.87069623 2.13671875 44.45703125 C-5.51931074 42.81945273 -12.0255837 43.65940732 -18.828125 47.515625 C-22.12470018 49.76867998 -23.92538755 51.54231258 -26 55 C-26.65009151 59.11724623 -26.63660076 61.06670296 -24.2734375 64.53125 C-17.90592163 71.44580331 -8.33875434 73.58749728 0.4375 75.9375 C15.10227684 79.87391689 27.56185398 85.89341225 36 99 C40.7412479 107.91281098 41.48372669 118.41132944 38.875 128.125 C34.69689209 140.25122946 26.48358156 150.1779846 15 156 C13.70977346 156.40050254 12.41816943 156.79660406 11.125 157.1875 C7.83737886 158.61250444 7.83737886 158.61250444 7.3671875 161.1953125 C7.18542969 162.49082031 7.18542969 162.49082031 7 163.8125 C6.45567612 167.68513762 5.83909925 169.87133661 3 172.625 C-0.72504132 175.35462318 -4.07700933 175.81140429 -8.62890625 175.52734375 C-13.20228888 174.51019934 -15.69871904 171.92093856 -18.3125 168.0625 C-19 166 -19 166 -19.125 162.9375 C-19.41375 161.968125 -19.7025 160.99875 -20 160 C-23.13129607 158.52590805 -23.13129607 158.52590805 -25.54296875 157.83984375 C-38.7856482 153.3133317 -46.77531314 144.82913671 -53.4375 132.875 C-55.89049207 127.63067212 -55.78176806 123.18072144 -53.8125 117.6875 C-51.68082803 114.526745 -50.56986793 113.36718346 -47 112 C-41.98630575 111.23390071 -37.54357287 111.17856112 -33.1875 114 C-30.05219391 116.56657615 -28.36869169 119.58782979 -26.3828125 123.06640625 C-23.26432812 127.42699882 -18.20909703 130.03426853 -13 131 C-4.64767915 131.6651159 0.85573748 130.8549364 7.8125 126.0625 C11.14798592 122.91761328 11.87600918 121.13658256 12.375 116.5625 C11.92123594 112.25174145 11.16624861 110.92877996 8 108 C2.44213905 104.64706632 -3.47548241 102.79724214 -9.6875 101.0625 C-25.70136842 96.38896886 -40.62671381 91.88258472 -50 77 C-52.61762315 72.17176218 -54.54030773 67.5163072 -55 62 C-55.06316406 61.36964844 -55.12632812 60.73929688 -55.19140625 60.08984375 C-55.82609841 48.80870249 -51.28232461 38.40489639 -44 30 C-37.33519588 22.96355252 -29.68994445 17.63217149 -20 16 C-20.05800781 15.34773437 -20.11601563 14.69546875 -20.17578125 14.0234375 C-20.59060185 5.98776979 -20.59060185 5.98776979 -17.875 2.5 C-12.17236572 -2.45881242 -6.86828616 -2.92186759 0 0 Z " fill="#1C1C1C" transform="translate(648,567)"/>
<path d="M0 0 C4.79627637 4.38808264 6.74845952 8.94844875 7.2784729 15.37828064 C7.29179657 16.63137527 7.30512024 17.88446991 7.31884766 19.17553711 C7.32889045 19.88410197 7.33893324 20.59266684 7.34928036 21.32270336 C7.38053161 23.72424355 7.39742257 26.12566064 7.4140625 28.52734375 C7.43303927 30.30452141 7.4526698 32.08169219 7.47288513 33.8588562 C7.52606139 38.82871787 7.56510427 43.79860706 7.60109329 48.76861954 C7.62502229 51.94045411 7.65273987 55.1122339 7.68161011 58.2840271 C8.37014724 134.85172264 8.08726675 211.43017763 8 288 C7.3807836 288.20409139 6.76156719 288.40818277 6.12358665 288.61845875 C4.90616752 289.02156537 4.90616752 289.02156537 3.66415405 289.43281555 C2.85931265 289.69878194 2.05447124 289.96474833 1.22524071 290.2387743 C-1.15332232 291.05244956 -3.43114073 291.98424374 -5.7109375 293.04296875 C-6.86529297 293.56987305 -6.86529297 293.56987305 -8.04296875 294.10742188 C-9.62142328 294.83848164 -11.19953881 295.57027371 -12.77734375 296.30273438 C-13.53917969 296.65013672 -14.30101562 296.99753906 -15.0859375 297.35546875 C-15.7670459 297.67153076 -16.4481543 297.98759277 -17.14990234 298.31323242 C-19 299 -19 299 -22 299 C-22.13202626 270.79573616 -22.26247003 242.59146536 -22.39115143 214.38718605 C-22.4509678 201.28432503 -22.5112727 188.18146661 -22.57275391 175.07861328 C-22.59671863 169.95996112 -22.62063865 164.84130875 -22.64453125 159.72265625 C-22.6504063 158.46566972 -22.65628136 157.2086832 -22.66233444 155.91360617 C-22.72598134 142.25518504 -22.78683873 128.59676039 -22.83984375 114.93829346 C-22.84446562 113.74831576 -22.84908749 112.55833806 -22.85384941 111.33230042 C-22.87192735 106.6569422 -22.88991829 101.98158372 -22.907444 97.30622339 C-22.95459887 84.75806833 -23.01292593 72.21020384 -23.10489655 59.66229439 C-23.14529342 54.09947256 -23.17264659 48.53661375 -23.19798279 42.97370529 C-23.21155818 40.59572055 -23.23035059 38.21775835 -23.25502014 35.83986282 C-23.28709651 32.72696121 -23.30125188 29.61450409 -23.31054688 26.50146484 C-23.32443954 25.64687054 -23.33833221 24.79227623 -23.35264587 23.91178513 C-23.33835118 15.61280446 -21.30118193 8.46331764 -15.52734375 2.37890625 C-10.98751726 -1.71970948 -5.66920805 -1.75940939 0 0 Z " fill="#FBFBFB" transform="translate(596,229)"/>
<path d="M0 0 C3.2587429 2.14951695 6.2357145 4.47142901 8 8 C8.34375 10.5390625 8.34375 10.5390625 8.5 13.625 C8.60828125 15.12933594 8.60828125 15.12933594 8.71875 16.6640625 C7.62368998 21.74656935 4.59390105 24.36748742 1 28 C0.06957533 28.95516127 -0.86058394 29.9105811 -1.79052734 30.86621094 C-4.43067175 33.56405905 -7.09552906 36.23613575 -9.76977539 38.90014648 C-11.43426277 40.5592732 -13.09333447 42.22368051 -14.75195312 43.88867188 C-19.73784604 48.87722097 -24.76050538 53.75400058 -30.12915039 58.33422852 C-34.5490352 62.26961597 -38.57287017 66.65681766 -42.64453125 70.94726562 C-47.93333049 76.36659282 -53.27134942 81.02892904 -61.125 81.5 C-66.87948289 80.75748608 -69.6389137 78.57599467 -73.375 74.25 C-75.32722184 70.34555632 -75.77828923 67.23919243 -75 63 C-72.57001368 56.92503421 -68.45659357 53.42496574 -63.53515625 49.2109375 C-60.89804762 46.91108621 -58.46379562 44.48453009 -56 42 C-54.73675903 40.72890381 -54.73675903 40.72890381 -53.44799805 39.43212891 C-52.56152588 38.53929199 -51.67505371 37.64645508 -50.76171875 36.7265625 C-49.2534077 35.21086753 -47.7446095 33.69565937 -46.2355957 32.18066406 C-45.2079943 31.1480389 -44.18129286 30.11451732 -43.15551758 29.08007812 C-37.82750745 23.70844487 -32.48061922 18.43282796 -26.72290039 13.515625 C-23.14756798 10.37042681 -19.97107096 6.82115315 -16.7109375 3.35546875 C-11.77846946 -0.93023475 -6.25261284 -2.1042447 0 0 Z " fill="#1C1C1C" transform="translate(763,262)"/>
<path d="M0 0 C6.08211389 2.35158425 9.93589529 6.56776767 14.3984375 11.140625 C15.19222809 11.9410321 15.98601868 12.74143921 16.80386353 13.56610107 C19.33479869 16.12037672 21.85535685 18.68458896 24.375 21.25 C26.88916867 23.79940951 29.40552091 26.34660659 31.92471313 28.89105225 C33.48854634 30.47164978 35.04927016 32.05533214 36.60629272 33.64263916 C40.65701999 37.74820771 44.79127722 41.67176393 49.17617798 45.4196167 C59.45133371 54.32327305 59.45133371 54.32327305 60.24609375 61.09765625 C60.54750041 66.56864388 59.73646418 69.75860822 56 74 C52.14702289 77.50270646 47.98944957 77.48385857 43.01171875 77.7890625 C33.54354534 75.30842563 25.41650148 63.47269232 18.77734375 56.73828125 C14.32410743 52.24615203 9.83396321 47.90811378 5.03222656 43.79199219 C0.90467706 40.15237021 -2.97292233 36.25284116 -6.875 32.375 C-7.72835937 31.54226563 -8.58171875 30.70953125 -9.4609375 29.8515625 C-10.275625 29.04203125 -11.0903125 28.2325 -11.9296875 27.3984375 C-13.03159424 26.31054932 -13.03159424 26.31054932 -14.15576172 25.20068359 C-17.86493051 20.77462489 -18.4985785 16.68379492 -18 11 C-14.89688712 2.67059175 -8.80108513 -1.27463992 0 0 Z " fill="#1C1C1C" transform="translate(711,476)"/>
<path d="M0 0 C1.40812302 -0.00389324 2.81624487 -0.00822919 4.22436523 -0.01298523 C7.16621724 -0.02041945 10.10794916 -0.02017608 13.04980469 -0.01489258 C16.80558578 -0.00909379 20.56087439 -0.02605193 24.3165741 -0.04923725 C27.22150509 -0.06401964 30.12631857 -0.06484034 33.03128052 -0.06172752 C34.41546608 -0.06223822 35.79965865 -0.06742833 37.18380737 -0.07753944 C52.75311576 -0.17735219 52.75311576 -0.17735219 59.4375 5.92578125 C62.06012328 10.09112411 63.0034942 13.38810589 62.5625 18.30078125 C60.23844145 23.22778537 57.24947741 25.64607307 52.5625 28.30078125 C49.18591309 28.80871582 49.18591309 28.80871582 45.45898438 28.81835938 C44.43337151 28.82887329 44.43337151 28.82887329 43.38703918 28.83959961 C41.14302082 28.85710186 38.90027957 28.84558608 36.65625 28.83203125 C35.08735921 28.83472844 33.51847005 28.83861274 31.94958496 28.84362793 C28.66788759 28.8495124 25.38662691 28.84099446 22.10498047 28.82226562 C17.90835559 28.79947613 13.71275406 28.81260494 9.51616669 28.83655548 C6.27838496 28.85104227 3.04084398 28.84639441 -0.19694519 28.83604431 C-1.74383161 28.83338495 -3.29074022 28.83661887 -4.83760071 28.84596252 C-7.00364684 28.85617646 -9.16805926 28.84056303 -11.33398438 28.81835938 C-13.17881409 28.81358582 -13.17881409 28.81358582 -15.06091309 28.80871582 C-19.87424534 28.08465395 -22.9477982 25.85374002 -26.27734375 22.3828125 C-28.5723955 18.26408327 -28.21985236 13.84099005 -27.4375 9.30078125 C-25.37336196 5.17250517 -23.01473066 2.91775553 -18.71508789 1.23583984 C-12.63796595 -0.41836979 -6.24807165 -0.00720659 0 0 Z " fill="#1B1B1B" transform="translate(751.4375,393.69921875)"/>
<path d="M0 0 C9.3321837 3.1107279 15.08104648 8.85438495 19.78125 17.4453125 C24.52732957 27.39382544 26.21888261 38.68475993 22.5 49.3125 C18.94221454 56.91664006 13.48906964 62.89454407 5.859375 66.44140625 C4 67 4 67 0 67 C0 44.89 0 22.78 0 0 Z " fill="#FDFDFD" transform="translate(633,376)"/>
<path d="M0 0 C17.49 0 34.98 0 53 0 C51.68 0.33 50.36 0.66 49 1 C49 1.66 49 2.32 49 3 C42.82528854 3.04949211 36.65069295 3.08576343 30.47583008 3.10986328 C28.37587472 3.11991169 26.27593331 3.13355266 24.17602539 3.15087891 C21.1550756 3.17517801 18.13431105 3.18649482 15.11328125 3.1953125 C13.70832146 3.21079636 13.70832146 3.21079636 12.27497864 3.22659302 C7.74277719 3.22737055 4.10916422 3.17300725 0 1 C0 0.67 0 0.34 0 0 Z " fill="#303030" transform="translate(315,685)"/>
<path d="M0 0 C1.11796576 3.35389727 0.97528624 5.49502136 0.6875 9 C0.60886719 10.051875 0.53023437 11.10375 0.44921875 12.1875 C0 15 0 15 -2 18 C-2.82791734 15.0923543 -3.16193659 12.45909481 -3.1875 9.4375 C-3.20167969 8.67308594 -3.21585938 7.90867187 -3.23046875 7.12109375 C-3 5 -3 5 -1 2 C-0.67 1.34 -0.34 0.68 0 0 Z " fill="#282728" transform="translate(596,615)"/>
<path d="M0 0 C1.85684088 3.21142152 2.41266805 5.9441131 2.75 9.625 C2.84796875 10.58664062 2.9459375 11.54828125 3.046875 12.5390625 C3 15 3 15 1 17 C0.93941406 16.32453125 0.87882812 15.6490625 0.81640625 14.953125 C0.73261719 14.06109375 0.64882813 13.1690625 0.5625 12.25 C0.48128906 11.36828125 0.40007812 10.4865625 0.31640625 9.578125 C0.07129387 7.04930812 0.07129387 7.04930812 -0.59765625 4.859375 C-1 3 -1 3 0 0 Z " fill="#232323" transform="translate(401,663)"/>
<path d="M0 0 C2 2 2 2 2.1953125 3.9453125 C2.13020833 5.96354167 2.06510417 7.98177083 2 10 C1.01 10 0.02 10 -1 10 C-1.125 2.25 -1.125 2.25 0 0 Z " fill="#242424" transform="translate(689,323)"/>
<path d="M0 0 C0.33 0 0.66 0 1 0 C1.38991022 1.93455454 1.76145349 3.87281828 2.125 5.8125 C2.33382813 6.89144531 2.54265625 7.97039063 2.7578125 9.08203125 C3 12 3 12 1 15 C0.15318867 9.91913204 -0.09038099 5.15171623 0 0 Z " fill="#272727" transform="translate(380,615)"/>
<path d="M0 0 C1.98362069 2.91708924 1.9876191 4.12380904 1.625 7.75 C1.41875 8.8225 1.2125 9.895 1 11 C-1.30441554 7.54337669 -1.25860135 6.05142119 -1 2 C-0.67 1.34 -0.34 0.68 0 0 Z " fill="#262626" transform="translate(775,618)"/>
<path d="M0 0 C2.875 -0.125 2.875 -0.125 6 0 C6.66 0.66 7.32 1.32 8 2 C5.36 2.33 2.72 2.66 0 3 C0 2.01 0 1.02 0 0 Z " fill="#272828" transform="translate(655,789)"/>
<path d="M0 0 C0.66 0.33 1.32 0.66 2 1 C2.125 4.375 2.125 4.375 2 8 C1.34 8.66 0.68 9.32 0 10 C-0.19412181 8.52168779 -0.38012131 7.04230684 -0.5625 5.5625 C-0.66691406 4.73878906 -0.77132813 3.91507813 -0.87890625 3.06640625 C-0.91886719 2.38449219 -0.95882813 1.70257812 -1 1 C-0.67 0.67 -0.34 0.34 0 0 Z " fill="#2D2C2D" transform="translate(271,659)"/>
<path d="M0 0 C0.33 0 0.66 0 1 0 C1.33 3.3 1.66 6.6 2 10 C1.34 10 0.68 10 0 10 C-1.125 3.375 -1.125 3.375 0 0 Z " fill="#2A292A" transform="translate(297,649)"/>
<path d="M0 0 C2.31 0.33 4.62 0.66 7 1 C5 3 5 3 1.875 3.125 C0.451875 3.063125 0.451875 3.063125 -1 3 C-0.67 2.01 -0.34 1.02 0 0 Z " fill="#2E2D2E" transform="translate(755,261)"/>
</svg>
